<svg width="29" height="27" viewBox="0 0 29 27" fill="none" xmlns="http://www.w3.org/2000/svg">
<path d="M14.0086 23.6598C14.0086 24.9899 12.9303 26.0682 11.6002 26.0682C10.27 26.0682 9.1918 24.9899 9.1918 23.6598C9.1918 22.3297 10.2701 21.2514 11.6002 21.2514C12.9303 21.2514 14.0086 22.3297 14.0086 23.6598ZM21.3519 21.2514C20.0218 21.2514 18.9435 22.3297 18.9435 23.6598C18.9435 24.9899 20.0218 26.0682 21.3519 26.0682C22.682 26.0682 23.7603 24.9899 23.7603 23.6598C23.7602 22.3297 22.682 21.2514 21.3519 21.2514ZM28.8277 9.94546L25.8642 18.7535C25.8642 18.7535 25.6189 20.0606 24.3691 20.0606C23.1192 20.0606 10.8964 20.0606 9.40487 20.0606C7.91329 20.0606 7.85061 18.4222 7.85061 18.4222C7.85061 18.4222 6.26056 6.62567 6.18176 5.913C6.10297 5.20034 5.19156 4.67211 5.19156 4.67211L1.2701 2.84032C-0.876848 1.7176 0.0990341 -0.418607 1.2701 0.0720259C6.24264 2.41772 8.55254 3.57268 8.70117 4.49663C8.85158 5.42237 9.113 7.65169 9.113 7.65169V7.66602C9.14345 7.65706 9.16493 7.65169 9.16493 7.65169C9.16493 7.65169 24.4138 7.65169 27.4937 7.65169C29.7069 7.65169 28.8277 9.94906 28.8277 9.94546ZM24.541 14.85L24.5105 14.8517H10.0029L10.302 17.2225H23.8355L24.541 14.85ZM25.9537 10.069H9.40308L9.72182 12.6027C12.8966 12.6027 22.1935 12.6027 25.2053 12.6027L25.9537 10.069Z" fill="#A90E2D"/>
</svg>
