<svg width="32" height="30" viewBox="0 0 32 30" fill="none" xmlns="http://www.w3.org/2000/svg">
<path d="M15.5948 4.90115L16 5.46138L16.4051 4.90117C16.9797 4.10674 17.6279 3.43091 18.3386 2.88108C19.7421 1.79581 21.3266 1.25 23.0608 1.25C25.3941 1.25 27.5332 2.18239 29.0938 3.87506C30.6378 5.54983 31.5 7.85104 31.5 10.3667C31.5 12.9296 30.5517 15.2978 28.4414 17.844L28.4414 17.844C26.5381 20.1408 23.7925 22.4826 20.5578 25.2391L20.5577 25.2391L20.5303 25.2625C19.4359 26.1953 18.195 27.253 16.9074 28.379L16.9072 28.3792C16.6567 28.5985 16.3344 28.7197 16 28.7197C15.6655 28.7197 15.3434 28.5986 15.0924 28.3788L15.092 28.3785C13.795 27.2444 12.5461 26.18 11.4463 25.2426L11.443 25.2398L11.443 25.2398C8.20779 22.4829 5.46213 20.1408 3.55881 17.8443C1.44848 15.2978 0.5 12.9296 0.5 10.3669C0.5 7.85105 1.3622 5.54983 2.90593 3.87506C4.46656 2.1824 6.60589 1.25 8.93921 1.25C10.6734 1.25 12.2579 1.79583 13.6611 2.88111L13.6612 2.88113C14.3722 3.43094 15.0205 4.10699 15.5948 4.90115Z" stroke="#D1D1D1"/>
</svg>
