<svg width="29" height="29" viewBox="0 0 29 29" fill="none" xmlns="http://www.w3.org/2000/svg">
<path d="M28.4361 23.0597L25.2211 20.9162L22.3631 19.0112C21.8116 18.6442 21.0703 18.7645 20.6631 19.2872L18.8947 21.5607C18.5148 22.054 17.8314 22.1958 17.2867 21.8942C16.0867 21.2267 14.6677 20.5982 11.5367 17.4632C8.4058 14.3283 7.7733 12.9133 7.10579 11.7133C6.80419 11.1685 6.94596 10.4852 7.43929 10.1054L9.71276 8.33689C10.2354 7.92976 10.3557 7.18852 9.98877 6.6369L8.14231 3.86692L5.94031 0.563909C5.56553 0.00170037 4.81527 -0.167087 4.23585 0.180399L1.69634 1.7039C1.01003 2.10825 0.505541 2.7612 0.287363 3.52737C-0.407099 6.05934 -0.547113 11.6448 8.40427 20.5962C17.3556 29.5475 22.9406 29.4071 25.4725 28.7125C26.2387 28.4944 26.8917 27.9899 27.296 27.3036L28.8195 24.7641C29.1671 24.1846 28.9983 23.4344 28.4361 23.0597Z" fill="#fff"/>
<path d="M16.4998 4.49986C21.192 4.50507 24.9945 8.30753 24.9997 12.9998C24.9997 13.2759 25.2236 13.4998 25.4998 13.4998C25.7759 13.4998 25.9998 13.2759 25.9998 12.9998C25.994 7.75552 21.7441 3.50566 16.4999 3.49988C16.2238 3.49988 15.9999 3.72372 15.9999 3.9999C15.9998 4.27596 16.2237 4.49986 16.4998 4.49986Z" fill="#fff"/>
<path d="M16.4995 7.49979C19.5356 7.50336 21.9959 9.96369 21.9994 12.9997C21.9994 13.2758 22.2233 13.4997 22.4995 13.4997C22.7756 13.4997 22.9995 13.2759 22.9995 12.9997C22.9953 9.41162 20.0877 6.50389 16.4995 6.49976C16.2234 6.49976 15.9995 6.7236 15.9995 6.99977C15.9995 7.27595 16.2234 7.49979 16.4995 7.49979Z" fill="#fff"/>
<path d="M16.4998 10.4998C17.8799 10.5014 18.9982 11.6197 18.9998 12.9998C18.9998 13.2759 19.2237 13.4998 19.4998 13.4998C19.776 13.4998 19.9998 13.2759 19.9998 12.9998C19.9976 11.0677 18.4319 9.50203 16.4999 9.49982C16.2238 9.49982 15.9999 9.72366 15.9999 9.99983C15.9998 10.276 16.2237 10.4998 16.4998 10.4998Z" fill="#fff"/>
</svg>
