<svg width="28" height="28" viewBox="0 0 28 28" fill="none" xmlns="http://www.w3.org/2000/svg">
<g clip-path="url(#clip0)">
<path d="M12.3306 0C5.53169 0 0 5.53169 0 12.3306C0 19.1299 5.53169 24.6612 12.3306 24.6612C19.1299 24.6612 24.6612 19.1299 24.6612 12.3306C24.6612 5.53169 19.1299 0 12.3306 0ZM12.3306 22.3848C6.78677 22.3848 2.27642 17.8745 2.27642 12.3307C2.27642 6.78683 6.78677 2.27642 12.3306 2.27642C17.8744 2.27642 22.3848 6.78677 22.3848 12.3306C22.3848 17.8744 17.8744 22.3848 12.3306 22.3848Z" fill="#424242"/>
<path d="M27.6665 26.0571L21.1408 19.5313C20.6961 19.0866 19.976 19.0866 19.5313 19.5313C19.0866 19.9756 19.0866 20.6965 19.5313 21.1408L26.0571 27.6665C26.2794 27.8888 26.5704 28 26.8618 28C27.1528 28 27.4442 27.8888 27.6665 27.6665C28.1112 27.2222 28.1112 26.5013 27.6665 26.0571Z" fill="#424242"/>
</g>
<defs>
<clipPath id="clip0">
<rect width="28" height="28" fill="white"/>
</clipPath>
</defs>
</svg>
